<mxfile host="65bd71144e">
    <diagram id="rdGeskmzSgYDUzIaTlJ9" name="第1頁">
        <mxGraphModel dx="1130" dy="531" grid="1" gridSize="10" guides="1" tooltips="1" connect="1" arrows="1" fold="1" page="1" pageScale="1" pageWidth="827" pageHeight="1169" math="0" shadow="0">
            <root>
                <mxCell id="0"/>
                <mxCell id="1" parent="0"/>
                <mxCell id="4" value="" style="strokeWidth=1;shadow=0;dashed=0;align=center;html=1;shape=mxgraph.mockup.containers.browserWindow;rSize=0;strokeColor=#666666;strokeColor2=#008cff;strokeColor3=#c4c4c4;mainText=,;recursiveResize=0;" vertex="1" parent="1">
                    <mxGeometry x="24" width="780" height="470" as="geometry"/>
                </mxCell>
                <mxCell id="5" value="Page 1" style="strokeWidth=1;shadow=0;dashed=0;align=center;html=1;shape=mxgraph.mockup.containers.anchor;fontSize=17;fontColor=#666666;align=left;" vertex="1" parent="4">
                    <mxGeometry x="60" y="12" width="110" height="26" as="geometry"/>
                </mxCell>
                <mxCell id="6" value="https://tpech.gov.taipei/mp109141/" style="strokeWidth=1;shadow=0;dashed=0;align=center;html=1;shape=mxgraph.mockup.containers.anchor;rSize=0;fontSize=17;fontColor=#666666;align=left;" vertex="1" parent="4">
                    <mxGeometry x="130" y="60" width="290" height="20" as="geometry"/>
                </mxCell>
                <mxCell id="10" value="" style="shape=ext;double=1;whiteSpace=wrap;html=1;aspect=fixed;" vertex="1" parent="4">
                    <mxGeometry y="110" width="120" height="120" as="geometry"/>
                </mxCell>
                <mxCell id="13" value="" style="rounded=0;whiteSpace=wrap;html=1;" vertex="1" parent="4">
                    <mxGeometry x="120" y="110" width="590" height="30" as="geometry"/>
                </mxCell>
                <mxCell id="39" value="" style="edgeStyle=none;html=1;" edge="1" parent="4" source="33" target="6">
                    <mxGeometry relative="1" as="geometry"/>
                </mxCell>
                <mxCell id="40" value="" style="edgeStyle=none;html=1;fontSize=12;" edge="1" parent="4" source="33" target="6">
                    <mxGeometry relative="1" as="geometry"/>
                </mxCell>
                <mxCell id="41" value="&lt;b&gt;&lt;font style=&quot;&quot;&gt;&lt;span style=&quot;font-size: 17px;&quot;&gt;ＬＯＧＯ&lt;/span&gt;&lt;br&gt;&lt;br&gt;&lt;font style=&quot;font-size: 13px;&quot;&gt;臺北市立聯合醫院&lt;br&gt;&lt;/font&gt;中　興　院　區&lt;br&gt;&lt;/font&gt;&lt;/b&gt;" style="text;html=1;strokeColor=none;fillColor=none;align=center;verticalAlign=middle;whiteSpace=wrap;rounded=0;fontSize=12;" vertex="1" parent="4">
                    <mxGeometry y="120" width="120" height="120" as="geometry"/>
                </mxCell>
                <mxCell id="74" value="&lt;font style=&quot;font-size: 14px;&quot;&gt;使命願景及定位&lt;/font&gt;" style="rounded=0;whiteSpace=wrap;html=1;align=left;fontSize=14;" vertex="1" parent="4">
                    <mxGeometry y="230" width="120" height="30" as="geometry"/>
                </mxCell>
                <mxCell id="75" value="中興簡介" style="rounded=0;whiteSpace=wrap;html=1;align=left;fontSize=14;" vertex="1" parent="4">
                    <mxGeometry y="260" width="120" height="30" as="geometry"/>
                </mxCell>
                <mxCell id="76" value="特色發展" style="rounded=0;whiteSpace=wrap;html=1;align=left;fontSize=14;" vertex="1" parent="4">
                    <mxGeometry y="290" width="120" height="30" as="geometry"/>
                </mxCell>
                <mxCell id="77" value="部科介紹" style="rounded=0;whiteSpace=wrap;html=1;align=left;fontSize=14;" vertex="1" parent="4">
                    <mxGeometry y="320" width="120" height="30" as="geometry"/>
                </mxCell>
                <mxCell id="78" value="醫師簡介" style="rounded=0;whiteSpace=wrap;html=1;align=left;fontSize=14;" vertex="1" parent="4">
                    <mxGeometry y="350" width="120" height="30" as="geometry"/>
                </mxCell>
                <mxCell id="79" value="民眾感謝函" style="rounded=0;whiteSpace=wrap;html=1;align=left;fontSize=14;" vertex="1" parent="4">
                    <mxGeometry y="380" width="120" height="30" as="geometry"/>
                </mxCell>
                <mxCell id="80" value="網路掛號" style="rounded=0;whiteSpace=wrap;html=1;align=left;fontSize=14;" vertex="1" parent="4">
                    <mxGeometry y="410" width="120" height="30" as="geometry"/>
                </mxCell>
                <mxCell id="81" value="掛號科別指引" style="rounded=0;whiteSpace=wrap;html=1;align=left;fontSize=14;" vertex="1" parent="4">
                    <mxGeometry y="440" width="120" height="30" as="geometry"/>
                </mxCell>
                <mxCell id="85" value="&lt;font style=&quot;font-size: 15px;&quot;&gt;請輸入關鍵字&lt;/font&gt;" style="strokeWidth=1;shadow=0;dashed=0;align=center;html=1;shape=mxgraph.mockup.forms.searchBox;strokeColor=#999999;mainText=;strokeColor2=#008cff;fontColor=#666666;fontSize=17;align=left;spacingLeft=3;fontFamily=Helvetica;fillColor=none;" vertex="1" parent="4">
                    <mxGeometry x="546" y="165" width="150" height="30" as="geometry"/>
                </mxCell>
                <mxCell id="86" value="&lt;font style=&quot;font-size: 17px;&quot;&gt;進階搜尋&lt;/font&gt;" style="text;strokeColor=none;fillColor=none;html=1;fontSize=17;fontStyle=1;verticalAlign=middle;align=center;fontFamily=Helvetica;fontColor=default;" vertex="1" parent="4">
                    <mxGeometry x="690" y="165" width="90" height="40" as="geometry"/>
                </mxCell>
                <mxCell id="87" value="" style="shape=process;whiteSpace=wrap;html=1;backgroundOutline=1;strokeColor=default;fontFamily=Helvetica;fontSize=15;fontColor=default;fillColor=none;" vertex="1" parent="4">
                    <mxGeometry x="120" y="230" width="660" height="180" as="geometry"/>
                </mxCell>
                <mxCell id="31" value="" style="group" vertex="1" connectable="0" parent="4">
                    <mxGeometry x="220" y="110" width="560" height="30" as="geometry"/>
                </mxCell>
                <mxCell id="33" value="&lt;font style=&quot;font-size: 12px;&quot;&gt;網站導覽&lt;/font&gt;" style="strokeColor=#FFFFFF;fillColor=default;gradientColor=inherit;strokeWidth=1;shadow=0;dashed=0;align=center;html=1;shape=mxgraph.mockup.forms.rrect;rSize=0;fontSize=17;fontColor=default;movable=1;resizable=1;rotatable=1;deletable=1;editable=1;connectable=1;" vertex="1" parent="31">
                    <mxGeometry x="79.99948052285377" width="79.99948052285376" height="30" as="geometry"/>
                </mxCell>
                <mxCell id="34" value="&lt;font style=&quot;font-size: 12px;&quot;&gt;陳情系統&lt;/font&gt;" style="strokeColor=#FFFFFF;fillColor=default;gradientColor=inherit;strokeWidth=1;shadow=0;dashed=0;align=center;html=1;shape=mxgraph.mockup.forms.rrect;rSize=0;fontSize=17;fontColor=default;movable=1;resizable=1;rotatable=1;deletable=1;editable=1;connectable=1;" vertex="1" parent="31">
                    <mxGeometry x="159.99896104570755" width="79.99948052285376" height="30" as="geometry"/>
                </mxCell>
                <mxCell id="35" value="&lt;font style=&quot;font-size: 12px;&quot;&gt;員工信箱&lt;/font&gt;" style="strokeColor=#FFFFFF;fillColor=default;gradientColor=inherit;strokeWidth=1;shadow=0;dashed=0;align=center;html=1;shape=mxgraph.mockup.forms.rrect;rSize=0;fontSize=17;fontColor=default;movable=1;resizable=1;rotatable=1;deletable=1;editable=1;connectable=1;" vertex="1" parent="31">
                    <mxGeometry x="240" width="80" height="30" as="geometry"/>
                </mxCell>
                <mxCell id="36" value="&lt;font style=&quot;font-size: 12px;&quot;&gt;台北卡-健康服務&lt;/font&gt;" style="strokeColor=#FFFFFF;fillColor=default;gradientColor=inherit;strokeWidth=1;shadow=0;dashed=0;align=center;html=1;shape=mxgraph.mockup.forms.rrect;rSize=0;fontSize=17;fontColor=default;movable=1;resizable=1;rotatable=1;deletable=1;editable=1;connectable=1;" vertex="1" parent="31">
                    <mxGeometry x="310" width="90" height="30" as="geometry"/>
                </mxCell>
                <mxCell id="37" value="&lt;font style=&quot;font-size: 12px;&quot;&gt;院訊雙月刊&lt;/font&gt;" style="strokeColor=#FFFFFF;fillColor=default;gradientColor=inherit;strokeWidth=1;shadow=0;dashed=0;align=center;html=1;shape=mxgraph.mockup.forms.rrect;rSize=0;fontSize=17;fontColor=default;movable=1;resizable=1;rotatable=1;deletable=1;editable=1;connectable=1;" vertex="1" parent="31">
                    <mxGeometry x="399.99740261426894" width="79.99948052285376" height="30" as="geometry"/>
                </mxCell>
                <mxCell id="38" value="English" style="strokeColor=#FFFFFF;fillColor=default;gradientColor=inherit;strokeWidth=1;shadow=0;dashed=0;align=center;html=1;shape=mxgraph.mockup.forms.rrect;rSize=0;fontSize=17;fontColor=default;movable=1;resizable=1;rotatable=1;deletable=1;editable=1;connectable=1;" vertex="1" parent="31">
                    <mxGeometry x="480.0005194771463" width="79.99948052285376" height="30" as="geometry"/>
                </mxCell>
                <mxCell id="88" value="" style="endArrow=none;html=1;fontFamily=Helvetica;fontSize=17;fontColor=default;" edge="1" parent="4">
                    <mxGeometry width="50" height="50" relative="1" as="geometry">
                        <mxPoint x="360" y="229" as="sourcePoint"/>
                        <mxPoint x="120" y="229" as="targetPoint"/>
                    </mxGeometry>
                </mxCell>
                <mxCell id="89" value="" style="endArrow=none;html=1;fontFamily=Helvetica;fontSize=17;fontColor=default;" edge="1" parent="4">
                    <mxGeometry width="50" height="50" relative="1" as="geometry">
                        <mxPoint x="590" y="229" as="sourcePoint"/>
                        <mxPoint x="350" y="229" as="targetPoint"/>
                    </mxGeometry>
                </mxCell>
                <mxCell id="90" value="" style="endArrow=none;html=1;fontFamily=Helvetica;fontSize=17;fontColor=default;" edge="1" parent="4">
                    <mxGeometry width="50" height="50" relative="1" as="geometry">
                        <mxPoint x="780" y="230" as="sourcePoint"/>
                        <mxPoint x="580" y="229" as="targetPoint"/>
                    </mxGeometry>
                </mxCell>
                <mxCell id="91" value="" style="triangle;whiteSpace=wrap;html=1;strokeColor=default;fontFamily=Helvetica;fontSize=17;fontColor=default;fillColor=none;" vertex="1" parent="4">
                    <mxGeometry x="720" y="280" width="60" height="80" as="geometry"/>
                </mxCell>
                <mxCell id="93" value="" style="triangle;whiteSpace=wrap;html=1;strokeColor=default;fontFamily=Helvetica;fontSize=17;fontColor=default;fillColor=none;flipH=1;" vertex="1" parent="4">
                    <mxGeometry x="120" y="280" width="60" height="80" as="geometry"/>
                </mxCell>
            </root>
        </mxGraphModel>
    </diagram>
</mxfile>